<mxfile host="app.diagrams.net" modified="2020-09-21T19:48:51.741Z" agent="5.0 (Windows NT 10.0; Win64; x64) AppleWebKit/537.36 (KHTML, like Gecko) Chrome/85.0.4183.102 Safari/537.36" etag="C3kZ2c1X3AOgmRQDkYNy" version="13.7.1" type="github">
  <diagram name="Page-1" id="e3a06f82-3646-2815-327d-82caf3d4e204">
    <mxGraphModel dx="3829.5" dy="1160" grid="1" gridSize="10" guides="1" tooltips="1" connect="1" arrows="1" fold="1" page="1" pageScale="1.5" pageWidth="1169" pageHeight="826" background="none" math="0" shadow="0">
      <root>
        <mxCell id="0" style=";html=1;" />
        <mxCell id="1" style=";html=1;" parent="0" />
        <mxCell id="NW1HPPaaWauUturvedQY-13" value="TCP/IP port 62003" style="edgeStyle=orthogonalEdgeStyle;orthogonalLoop=1;jettySize=auto;html=1;fontSize=20;curved=1;" edge="1" parent="1" source="6a7d8f32e03d9370-61" target="NW1HPPaaWauUturvedQY-11">
          <mxGeometry relative="1" as="geometry" />
        </mxCell>
        <mxCell id="NW1HPPaaWauUturvedQY-23" style="edgeStyle=orthogonalEdgeStyle;curved=1;orthogonalLoop=1;jettySize=auto;html=1;fontSize=20;" edge="1" parent="1" source="6a7d8f32e03d9370-61" target="NW1HPPaaWauUturvedQY-17">
          <mxGeometry relative="1" as="geometry" />
        </mxCell>
        <mxCell id="NW1HPPaaWauUturvedQY-29" style="edgeStyle=orthogonalEdgeStyle;curved=1;orthogonalLoop=1;jettySize=auto;html=1;fontSize=20;exitX=0.671;exitY=1;exitDx=0;exitDy=0;exitPerimeter=0;" edge="1" parent="1" source="6a7d8f32e03d9370-61" target="NW1HPPaaWauUturvedQY-25">
          <mxGeometry relative="1" as="geometry" />
        </mxCell>
        <mxCell id="NW1HPPaaWauUturvedQY-33" value="TCP/IP" style="edgeLabel;html=1;align=center;verticalAlign=middle;resizable=0;points=[];fontSize=20;" vertex="1" connectable="0" parent="NW1HPPaaWauUturvedQY-29">
          <mxGeometry x="0.2077" y="-31" relative="1" as="geometry">
            <mxPoint as="offset" />
          </mxGeometry>
        </mxCell>
        <mxCell id="6a7d8f32e03d9370-61" value="&amp;nbsp; &lt;b&gt;PARS Web Service&amp;nbsp;App&lt;/b&gt;" style="whiteSpace=wrap;html=1;fillColor=#f8cecc;fontSize=18;strokeColor=none;verticalAlign=top;align=left;opacity=50;" parent="1" vertex="1">
          <mxGeometry x="527.5" y="360" width="493" height="310" as="geometry" />
        </mxCell>
        <mxCell id="6a7d8f32e03d9370-62" value="Citrix Network Architecture" style="text;strokeColor=none;fillColor=none;html=1;fontSize=24;fontStyle=1;verticalAlign=middle;align=center;" parent="1" vertex="1">
          <mxGeometry x="499" y="30" width="861" height="40" as="geometry" />
        </mxCell>
        <mxCell id="NW1HPPaaWauUturvedQY-3" style="edgeStyle=orthogonalEdgeStyle;rounded=0;orthogonalLoop=1;jettySize=auto;html=1;fontSize=20;" edge="1" parent="1" source="NW1HPPaaWauUturvedQY-1" target="NW1HPPaaWauUturvedQY-2">
          <mxGeometry relative="1" as="geometry" />
        </mxCell>
        <mxCell id="NW1HPPaaWauUturvedQY-4" value="htpps port: 4433" style="edgeLabel;html=1;align=center;verticalAlign=middle;resizable=0;points=[];fontSize=20;" vertex="1" connectable="0" parent="NW1HPPaaWauUturvedQY-3">
          <mxGeometry x="0.0004" y="-37" relative="1" as="geometry">
            <mxPoint x="-37" y="-34" as="offset" />
          </mxGeometry>
        </mxCell>
        <mxCell id="NW1HPPaaWauUturvedQY-1" value="Call Center Users" style="verticalLabelPosition=bottom;aspect=fixed;html=1;verticalAlign=top;strokeColor=none;align=center;outlineConnect=0;shape=mxgraph.citrix.desktop;fontSize=20;" vertex="1" parent="1">
          <mxGeometry x="82" y="100" width="89" height="98" as="geometry" />
        </mxCell>
        <mxCell id="NW1HPPaaWauUturvedQY-2" value="10.138.15.167" style="verticalLabelPosition=bottom;aspect=fixed;html=1;verticalAlign=top;strokeColor=none;align=center;outlineConnect=0;shape=mxgraph.citrix.switch;fontSize=20;" vertex="1" parent="1">
          <mxGeometry x="706" y="128.25" width="92" height="41.5" as="geometry" />
        </mxCell>
        <mxCell id="NW1HPPaaWauUturvedQY-5" value="" style="shape=image;html=1;verticalAlign=top;verticalLabelPosition=bottom;labelBackgroundColor=#ffffff;imageAspect=0;aspect=fixed;image=https://cdn3.iconfinder.com/data/icons/security-flat-2-1/512/wall__fire__bricks_-128.png;fontSize=20;" vertex="1" parent="1">
          <mxGeometry x="1270" y="89.75" width="80" height="80" as="geometry" />
        </mxCell>
        <mxCell id="NW1HPPaaWauUturvedQY-6" value="&lt;b&gt;&amp;nbsp; Azcapotzalco&lt;/b&gt;" style="whiteSpace=wrap;html=1;fontSize=23;verticalAlign=top;strokeColor=#82b366;fillColor=none;strokeWidth=9;align=left;" vertex="1" parent="1">
          <mxGeometry x="1120" y="320" width="722" height="940" as="geometry" />
        </mxCell>
        <mxCell id="NW1HPPaaWauUturvedQY-7" value="PMXNT20124MXA&lt;br&gt;148.250.250.181" style="verticalLabelPosition=bottom;aspect=fixed;html=1;verticalAlign=top;strokeColor=none;align=center;outlineConnect=0;shape=mxgraph.citrix.web_server;fillColor=none;fontSize=18;" vertex="1" parent="1">
          <mxGeometry x="620" y="470" width="76.5" height="90" as="geometry" />
        </mxCell>
        <mxCell id="NW1HPPaaWauUturvedQY-8" value="PMXNT20124MXB&lt;br&gt;148.250.250.182" style="verticalLabelPosition=bottom;aspect=fixed;html=1;verticalAlign=top;strokeColor=none;align=center;outlineConnect=0;shape=mxgraph.citrix.web_server;fillColor=none;fontSize=18;" vertex="1" parent="1">
          <mxGeometry x="869.5" y="470" width="76.5" height="90" as="geometry" />
        </mxCell>
        <mxCell id="NW1HPPaaWauUturvedQY-9" value="Web Server" style="text;html=1;strokeColor=none;fillColor=none;align=center;verticalAlign=middle;whiteSpace=wrap;rounded=0;fontSize=20;fontStyle=1" vertex="1" parent="1">
          <mxGeometry x="720" y="500" width="120" height="20" as="geometry" />
        </mxCell>
        <mxCell id="NW1HPPaaWauUturvedQY-10" value="Windows Server 2008" style="text;html=1;strokeColor=none;fillColor=none;align=center;verticalAlign=middle;whiteSpace=wrap;rounded=0;fontSize=20;fontStyle=1" vertex="1" parent="1">
          <mxGeometry x="1040" y="460" width="150" height="20" as="geometry" />
        </mxCell>
        <mxCell id="NW1HPPaaWauUturvedQY-11" value="&lt;b&gt;&lt;font style=&quot;font-size: 20px&quot;&gt;SQL Server 2012&lt;/font&gt;&lt;/b&gt;" style="whiteSpace=wrap;html=1;fontSize=18;strokeColor=none;verticalAlign=top;align=center;fillColor=#97D077;opacity=50;" vertex="1" parent="1">
          <mxGeometry x="499" y="980" width="260" height="240" as="geometry" />
        </mxCell>
        <mxCell id="NW1HPPaaWauUturvedQY-12" value="&lt;b&gt;DB&lt;br&gt;PMXNT55019MX&lt;br&gt;10.138.141.10&lt;/b&gt;" style="verticalLabelPosition=bottom;aspect=fixed;html=1;verticalAlign=top;strokeColor=none;align=center;outlineConnect=0;shape=mxgraph.citrix.database_server;fillColor=#97D077;fontSize=20;" vertex="1" parent="1">
          <mxGeometry x="589" y="1040" width="80" height="90" as="geometry" />
        </mxCell>
        <mxCell id="NW1HPPaaWauUturvedQY-14" value="Vlan 123&lt;br style=&quot;font-size: 17px;&quot;&gt;IP Adress: 10.138.141.10&lt;br style=&quot;font-size: 17px;&quot;&gt;Mask: 255.255.255.0&lt;br style=&quot;font-size: 17px;&quot;&gt;Gateway: 10.138.141.1" style="text;html=1;strokeColor=none;fillColor=none;align=right;verticalAlign=middle;whiteSpace=wrap;rounded=0;fontSize=17;" vertex="1" parent="1">
          <mxGeometry x="360" y="920" width="250" height="20" as="geometry" />
        </mxCell>
        <mxCell id="NW1HPPaaWauUturvedQY-15" value="" style="whiteSpace=wrap;html=1;fontSize=18;strokeColor=#6c8ebf;verticalAlign=top;align=center;fillColor=#dae8fc;opacity=50;imageAspect=1;connectable=1;allowArrows=1;recursiveResize=0;expand=1;gradientDirection=north;" vertex="1" parent="1">
          <mxGeometry x="404.5" y="1320" width="680" height="290" as="geometry" />
        </mxCell>
        <mxCell id="NW1HPPaaWauUturvedQY-19" style="edgeStyle=orthogonalEdgeStyle;curved=1;orthogonalLoop=1;jettySize=auto;html=1;entryX=0.25;entryY=1;entryDx=0;entryDy=0;fontSize=17;" edge="1" parent="1" source="NW1HPPaaWauUturvedQY-16" target="NW1HPPaaWauUturvedQY-11">
          <mxGeometry relative="1" as="geometry" />
        </mxCell>
        <mxCell id="NW1HPPaaWauUturvedQY-20" value="tcp/ip&lt;br style=&quot;font-size: 20px;&quot;&gt;port: 62003" style="edgeLabel;html=1;align=center;verticalAlign=middle;resizable=0;points=[];fontSize=20;" vertex="1" connectable="0" parent="NW1HPPaaWauUturvedQY-19">
          <mxGeometry x="0.3422" relative="1" as="geometry">
            <mxPoint y="1" as="offset" />
          </mxGeometry>
        </mxCell>
        <mxCell id="NW1HPPaaWauUturvedQY-30" style="edgeStyle=orthogonalEdgeStyle;curved=1;orthogonalLoop=1;jettySize=auto;html=1;fontSize=20;" edge="1" parent="1" source="NW1HPPaaWauUturvedQY-16" target="NW1HPPaaWauUturvedQY-26">
          <mxGeometry relative="1" as="geometry">
            <Array as="points">
              <mxPoint x="565" y="1540" />
              <mxPoint x="1460" y="1540" />
            </Array>
          </mxGeometry>
        </mxCell>
        <mxCell id="NW1HPPaaWauUturvedQY-34" value="SSH" style="edgeLabel;html=1;align=center;verticalAlign=middle;resizable=0;points=[];fontSize=20;" vertex="1" connectable="0" parent="NW1HPPaaWauUturvedQY-30">
          <mxGeometry x="0.2732" y="-3" relative="1" as="geometry">
            <mxPoint as="offset" />
          </mxGeometry>
        </mxCell>
        <mxCell id="NW1HPPaaWauUturvedQY-31" style="edgeStyle=orthogonalEdgeStyle;curved=1;orthogonalLoop=1;jettySize=auto;html=1;fontSize=20;strokeColor=#FF3333;" edge="1" parent="1" source="NW1HPPaaWauUturvedQY-16" target="NW1HPPaaWauUturvedQY-27">
          <mxGeometry relative="1" as="geometry">
            <Array as="points">
              <mxPoint x="565" y="1620" />
              <mxPoint x="1460" y="1620" />
            </Array>
          </mxGeometry>
        </mxCell>
        <mxCell id="NW1HPPaaWauUturvedQY-35" value="SSH" style="edgeLabel;html=1;align=center;verticalAlign=middle;resizable=0;points=[];fontSize=20;" vertex="1" connectable="0" parent="NW1HPPaaWauUturvedQY-31">
          <mxGeometry x="0.1968" y="-1" relative="1" as="geometry">
            <mxPoint as="offset" />
          </mxGeometry>
        </mxCell>
        <mxCell id="NW1HPPaaWauUturvedQY-16" value="&lt;b&gt;SSIS&lt;br&gt;PMXNT51002MX&lt;br&gt;148.250.26.198&lt;/b&gt;" style="verticalLabelPosition=bottom;aspect=fixed;html=1;verticalAlign=top;strokeColor=none;align=center;outlineConnect=0;shape=mxgraph.citrix.database_server;fillColor=#97D077;fontSize=20;" vertex="1" parent="1">
          <mxGeometry x="524.5" y="1430" width="80" height="90" as="geometry" />
        </mxCell>
        <mxCell id="NW1HPPaaWauUturvedQY-18" style="edgeStyle=orthogonalEdgeStyle;curved=1;orthogonalLoop=1;jettySize=auto;html=1;entryX=0.5;entryY=1;entryDx=0;entryDy=0;fontSize=17;" edge="1" parent="1" source="NW1HPPaaWauUturvedQY-17" target="NW1HPPaaWauUturvedQY-11">
          <mxGeometry relative="1" as="geometry" />
        </mxCell>
        <mxCell id="NW1HPPaaWauUturvedQY-21" value="tcp/ip&lt;br&gt;port: 62003" style="edgeLabel;html=1;align=center;verticalAlign=middle;resizable=0;points=[];fontSize=20;" vertex="1" connectable="0" parent="NW1HPPaaWauUturvedQY-18">
          <mxGeometry x="-0.3208" y="-27" relative="1" as="geometry">
            <mxPoint as="offset" />
          </mxGeometry>
        </mxCell>
        <mxCell id="NW1HPPaaWauUturvedQY-17" value="&lt;b&gt;SSRS&lt;br&gt;PMXNT51001MX&lt;br&gt;148.250.26.197&lt;/b&gt;" style="verticalLabelPosition=bottom;aspect=fixed;html=1;verticalAlign=top;strokeColor=none;align=center;outlineConnect=0;shape=mxgraph.citrix.database_server;fillColor=#97D077;fontSize=20;" vertex="1" parent="1">
          <mxGeometry x="814.5" y="1350" width="80" height="90" as="geometry" />
        </mxCell>
        <mxCell id="NW1HPPaaWauUturvedQY-24" value="&lt;b&gt;&lt;font style=&quot;font-size: 20px&quot;&gt;Other Sytems&lt;br&gt;&lt;/font&gt;&lt;/b&gt;" style="whiteSpace=wrap;html=1;fontSize=18;strokeColor=none;verticalAlign=top;align=center;opacity=50;fillColor=#FFFF66;" vertex="1" parent="1">
          <mxGeometry x="1330" y="1310" width="260" height="780" as="geometry" />
        </mxCell>
        <mxCell id="NW1HPPaaWauUturvedQY-25" value="DB2&lt;br&gt;FlexPromo" style="verticalLabelPosition=bottom;aspect=fixed;html=1;verticalAlign=top;strokeColor=none;align=center;outlineConnect=0;shape=mxgraph.citrix.tower_server;fillColor=#97D077;gradientColor=none;fontSize=20;opacity=50;" vertex="1" parent="1">
          <mxGeometry x="1427" y="1390" width="65" height="85" as="geometry" />
        </mxCell>
        <mxCell id="NW1HPPaaWauUturvedQY-26" value="Ingresos Uxs64&lt;br&gt;148.250.29.87" style="verticalLabelPosition=bottom;aspect=fixed;html=1;verticalAlign=top;strokeColor=none;align=center;outlineConnect=0;shape=mxgraph.citrix.tower_server;gradientColor=none;fontSize=20;opacity=50;fillColor=#FFFF66;" vertex="1" parent="1">
          <mxGeometry x="1427" y="1560" width="65" height="85" as="geometry" />
        </mxCell>
        <mxCell id="NW1HPPaaWauUturvedQY-27" value="Uxs73&lt;br&gt;148.250.30.200" style="verticalLabelPosition=bottom;aspect=fixed;html=1;verticalAlign=top;strokeColor=none;align=center;outlineConnect=0;shape=mxgraph.citrix.tower_server;fillColor=#97D077;gradientColor=none;fontSize=20;opacity=50;" vertex="1" parent="1">
          <mxGeometry x="1427" y="1730" width="65" height="85" as="geometry" />
        </mxCell>
        <mxCell id="NW1HPPaaWauUturvedQY-32" style="edgeStyle=orthogonalEdgeStyle;orthogonalLoop=1;jettySize=auto;html=1;strokeColor=#FF3333;fontSize=20;curved=1;" edge="1" parent="1" source="NW1HPPaaWauUturvedQY-28" target="NW1HPPaaWauUturvedQY-16">
          <mxGeometry relative="1" as="geometry">
            <Array as="points">
              <mxPoint x="1465" y="1720" />
              <mxPoint x="565" y="1720" />
            </Array>
          </mxGeometry>
        </mxCell>
        <mxCell id="NW1HPPaaWauUturvedQY-36" value="SSH" style="edgeLabel;html=1;align=center;verticalAlign=middle;resizable=0;points=[];fontSize=20;" vertex="1" connectable="0" parent="NW1HPPaaWauUturvedQY-32">
          <mxGeometry x="-0.115" y="1" relative="1" as="geometry">
            <mxPoint x="-1" as="offset" />
          </mxGeometry>
        </mxCell>
        <mxCell id="NW1HPPaaWauUturvedQY-28" value="Host-i1&lt;br&gt;172.16.6.253" style="verticalLabelPosition=bottom;aspect=fixed;html=1;verticalAlign=top;strokeColor=none;align=center;outlineConnect=0;shape=mxgraph.citrix.tower_server;fillColor=#97D077;gradientColor=none;fontSize=20;opacity=50;" vertex="1" parent="1">
          <mxGeometry x="1432" y="1910.25" width="65" height="85" as="geometry" />
        </mxCell>
        <mxCell id="NW1HPPaaWauUturvedQY-37" value="&lt;b&gt;&lt;font style=&quot;font-size: 20px&quot;&gt;Other Sytems&lt;br&gt;&lt;/font&gt;&lt;/b&gt;" style="whiteSpace=wrap;html=1;fontSize=18;strokeColor=none;verticalAlign=top;align=center;opacity=50;fillColor=#FFFF66;" vertex="1" parent="1">
          <mxGeometry x="-190" y="550" width="260" height="990" as="geometry" />
        </mxCell>
      </root>
    </mxGraphModel>
  </diagram>
</mxfile>
